<svg width="1200" height="520" viewBox="0 0 1200 520" fill="none" xmlns="http://www.w3.org/2000/svg" role="img" aria-labelledby="title desc">
  <title id="title">Business systems map</title>
  <desc id="desc">A workflow map showing leads moving through sales, onboarding, delivery, and support with highlighted gaps.</desc>
  <rect width="1200" height="520" rx="36" fill="#F8FBFC"/>
  <rect x="40" y="40" width="1120" height="440" rx="28" fill="#FFFFFF" stroke="#D9E7EA" stroke-width="2"/>

  <rect x="76" y="80" width="166" height="52" rx="16" fill="#E8F7F4" stroke="#BDE1DA" stroke-width="2"/>
  <text x="159" y="112" text-anchor="middle" font-family="Inter, Arial, sans-serif" font-size="20" font-weight="700" fill="#1E5F5B">Lead Capture</text>

  <rect x="318" y="80" width="166" height="52" rx="16" fill="#E7EEF9" stroke="#CBD9EF" stroke-width="2"/>
  <text x="401" y="112" text-anchor="middle" font-family="Inter, Arial, sans-serif" font-size="20" font-weight="700" fill="#365F88">Sales</text>

  <rect x="560" y="80" width="166" height="52" rx="16" fill="#EAF5E8" stroke="#C9E6C4" stroke-width="2"/>
  <text x="643" y="112" text-anchor="middle" font-family="Inter, Arial, sans-serif" font-size="20" font-weight="700" fill="#3B7144">Onboarding</text>

  <rect x="802" y="80" width="166" height="52" rx="16" fill="#F0F4FA" stroke="#D5DEEC" stroke-width="2"/>
  <text x="885" y="112" text-anchor="middle" font-family="Inter, Arial, sans-serif" font-size="20" font-weight="700" fill="#405168">Delivery</text>

  <rect x="1000" y="80" width="122" height="52" rx="16" fill="#F7F0E6" stroke="#E6D6BD" stroke-width="2"/>
  <text x="1061" y="112" text-anchor="middle" font-family="Inter, Arial, sans-serif" font-size="20" font-weight="700" fill="#7A5C2F">Support</text>

  <path d="M242 106H306" stroke="#6D928E" stroke-width="5" stroke-linecap="round"/>
  <path d="M294 94L306 106L294 118" stroke="#6D928E" stroke-width="5" stroke-linecap="round" stroke-linejoin="round"/>
  <path d="M484 106H548" stroke="#6D928E" stroke-width="5" stroke-linecap="round"/>
  <path d="M536 94L548 106L536 118" stroke="#6D928E" stroke-width="5" stroke-linecap="round" stroke-linejoin="round"/>
  <path d="M726 106H790" stroke="#6D928E" stroke-width="5" stroke-linecap="round"/>
  <path d="M778 94L790 106L778 118" stroke="#6D928E" stroke-width="5" stroke-linecap="round" stroke-linejoin="round"/>
  <path d="M968 106H988" stroke="#6D928E" stroke-width="5" stroke-linecap="round"/>
  <path d="M976 94L988 106L976 118" stroke="#6D928E" stroke-width="5" stroke-linecap="round" stroke-linejoin="round"/>

  <g opacity="0.95">
    <rect x="86" y="190" width="146" height="116" rx="18" fill="#F4FAFB" stroke="#D9E7EA" stroke-width="2"/>
    <circle cx="118" cy="224" r="11" fill="#75B7AC"/>
    <path d="M146 218H204" stroke="#6D7D86" stroke-width="8" stroke-linecap="round"/>
    <path d="M118 256H202" stroke="#B7C7CC" stroke-width="8" stroke-linecap="round"/>
    <path d="M118 280H182" stroke="#D0DCE0" stroke-width="8" stroke-linecap="round"/>

    <rect x="328" y="190" width="146" height="116" rx="18" fill="#F4FAFB" stroke="#D9E7EA" stroke-width="2"/>
    <circle cx="360" cy="224" r="11" fill="#76A9D1"/>
    <path d="M388 218H446" stroke="#6D7D86" stroke-width="8" stroke-linecap="round"/>
    <path d="M360 256H444" stroke="#B7C7CC" stroke-width="8" stroke-linecap="round"/>
    <path d="M360 280H424" stroke="#D0DCE0" stroke-width="8" stroke-linecap="round"/>

    <rect x="570" y="190" width="146" height="116" rx="18" fill="#F4FAFB" stroke="#D9E7EA" stroke-width="2"/>
    <circle cx="602" cy="224" r="11" fill="#81BB72"/>
    <path d="M630 218H688" stroke="#6D7D86" stroke-width="8" stroke-linecap="round"/>
    <path d="M602 256H686" stroke="#B7C7CC" stroke-width="8" stroke-linecap="round"/>
    <path d="M602 280H666" stroke="#D0DCE0" stroke-width="8" stroke-linecap="round"/>

    <rect x="812" y="190" width="146" height="116" rx="18" fill="#F4FAFB" stroke="#D9E7EA" stroke-width="2"/>
    <circle cx="844" cy="224" r="11" fill="#7C8EA6"/>
    <path d="M872 218H930" stroke="#6D7D86" stroke-width="8" stroke-linecap="round"/>
    <path d="M844 256H928" stroke="#B7C7CC" stroke-width="8" stroke-linecap="round"/>
    <path d="M844 280H908" stroke="#D0DCE0" stroke-width="8" stroke-linecap="round"/>
  </g>

  <path d="M232 248H316" stroke="#AFC5C9" stroke-width="4" stroke-dasharray="10 10"/>
  <path d="M474 248H558" stroke="#AFC5C9" stroke-width="4" stroke-dasharray="10 10"/>
  <path d="M716 248H800" stroke="#AFC5C9" stroke-width="4" stroke-dasharray="10 10"/>
  <path d="M958 248C1012 248 1020 328 982 352C944 376 865 344 834 390" stroke="#AFC5C9" stroke-width="4" stroke-dasharray="10 10" stroke-linecap="round"/>

  <rect x="96" y="370" width="244" height="62" rx="18" fill="#FFF8E6" stroke="#E9CB71" stroke-width="2"/>
  <circle cx="126" cy="401" r="13" fill="#D89C26"/>
  <text x="150" y="407" font-family="Inter, Arial, sans-serif" font-size="17" font-weight="700" fill="#735114">Duplicate data entry</text>

  <rect x="420" y="370" width="262" height="62" rx="18" fill="#FFEFEA" stroke="#E8B7A7" stroke-width="2"/>
  <circle cx="450" cy="401" r="13" fill="#D27656"/>
  <text x="474" y="407" font-family="Inter, Arial, sans-serif" font-size="17" font-weight="700" fill="#80402B">Manual handoff risk</text>

  <rect x="762" y="370" width="292" height="62" rx="18" fill="#E8F7F4" stroke="#BDE1DA" stroke-width="2"/>
  <circle cx="792" cy="401" r="13" fill="#1E5F5B"/>
  <text x="816" y="407" font-family="Inter, Arial, sans-serif" font-size="17" font-weight="700" fill="#1E5F5B">Automation opportunity</text>
</svg>
