<svg width="1200" height="460" viewBox="0 0 1200 460" fill="none" xmlns="http://www.w3.org/2000/svg" role="img" aria-labelledby="title desc">
  <title id="title">Automation flow</title>
  <desc id="desc">An automation scenario connecting a form trigger to CRM update, AI summary, onboarding email, and task creation.</desc>
  <rect width="1200" height="460" rx="36" fill="#F8FBFC"/>
  <rect x="42" y="42" width="1116" height="376" rx="28" fill="#FFFFFF" stroke="#D9E7EA" stroke-width="2"/>

  <rect x="84" y="88" width="188" height="270" rx="24" fill="#E8F7F4" stroke="#BDE1DA" stroke-width="2"/>
  <text x="118" y="132" font-family="Inter, Arial, sans-serif" font-size="18" font-weight="800" fill="#1E5F5B">TRIGGER</text>
  <circle cx="178" cy="204" r="46" fill="#FFFFFF" stroke="#A7DAD1" stroke-width="4"/>
  <path d="M157 204H199M178 183V225" stroke="#1E5F5B" stroke-width="9" stroke-linecap="round"/>
  <text x="178" y="292" text-anchor="middle" font-family="Inter, Arial, sans-serif" font-size="20" font-weight="700" fill="#20333D">New lead form</text>
  <text x="178" y="322" text-anchor="middle" font-family="Inter, Arial, sans-serif" font-size="15" fill="#667780">Website / Typeform</text>

  <rect x="358" y="88" width="188" height="270" rx="24" fill="#E7EEF9" stroke="#CBD9EF" stroke-width="2"/>
  <text x="392" y="132" font-family="Inter, Arial, sans-serif" font-size="18" font-weight="800" fill="#365F88">ACTION</text>
  <rect x="406" y="162" width="92" height="92" rx="22" fill="#FFFFFF" stroke="#B4CBE6" stroke-width="4"/>
  <path d="M430 194H474M430 222H462" stroke="#365F88" stroke-width="9" stroke-linecap="round"/>
  <text x="452" y="292" text-anchor="middle" font-family="Inter, Arial, sans-serif" font-size="20" font-weight="700" fill="#20333D">Update CRM</text>
  <text x="452" y="322" text-anchor="middle" font-family="Inter, Arial, sans-serif" font-size="15" fill="#667780">Company + deal</text>

  <rect x="632" y="88" width="188" height="270" rx="24" fill="#F0F4FA" stroke="#D5DEEC" stroke-width="2"/>
  <text x="666" y="132" font-family="Inter, Arial, sans-serif" font-size="18" font-weight="800" fill="#405168">AI STEP</text>
  <circle cx="726" cy="208" r="48" fill="#FFFFFF" stroke="#C5D1E2" stroke-width="4"/>
  <path d="M704 214C704 199 714 188 726 188C738 188 748 199 748 214" stroke="#405168" stroke-width="8" stroke-linecap="round"/>
  <path d="M698 225H754" stroke="#405168" stroke-width="8" stroke-linecap="round"/>
  <path d="M716 177L710 164M736 177L742 164" stroke="#405168" stroke-width="6" stroke-linecap="round"/>
  <text x="726" y="292" text-anchor="middle" font-family="Inter, Arial, sans-serif" font-size="20" font-weight="700" fill="#20333D">Summarize lead</text>
  <text x="726" y="322" text-anchor="middle" font-family="Inter, Arial, sans-serif" font-size="15" fill="#667780">Fit + next action</text>

  <rect x="906" y="88" width="188" height="270" rx="24" fill="#EAF5E8" stroke="#C9E6C4" stroke-width="2"/>
  <text x="940" y="132" font-family="Inter, Arial, sans-serif" font-size="18" font-weight="800" fill="#3B7144">OUTPUT</text>
  <rect x="954" y="166" width="92" height="72" rx="16" fill="#FFFFFF" stroke="#B9DDB3" stroke-width="4"/>
  <path d="M958 174L1000 206L1042 174" stroke="#3B7144" stroke-width="7" stroke-linecap="round" stroke-linejoin="round"/>
  <text x="1000" y="292" text-anchor="middle" font-family="Inter, Arial, sans-serif" font-size="20" font-weight="700" fill="#20333D">Send sequence</text>
  <text x="1000" y="322" text-anchor="middle" font-family="Inter, Arial, sans-serif" font-size="15" fill="#667780">Email + owner task</text>

  <path d="M272 223H340" stroke="#6D928E" stroke-width="8" stroke-linecap="round"/>
  <path d="M324 207L340 223L324 239" stroke="#6D928E" stroke-width="8" stroke-linecap="round" stroke-linejoin="round"/>
  <path d="M546 223H614" stroke="#6D928E" stroke-width="8" stroke-linecap="round"/>
  <path d="M598 207L614 223L598 239" stroke="#6D928E" stroke-width="8" stroke-linecap="round" stroke-linejoin="round"/>
  <path d="M820 223H888" stroke="#6D928E" stroke-width="8" stroke-linecap="round"/>
  <path d="M872 207L888 223L872 239" stroke="#6D928E" stroke-width="8" stroke-linecap="round" stroke-linejoin="round"/>

  <rect x="340" y="374" width="520" height="24" rx="12" fill="#EEF5F6"/>
  <rect x="340" y="374" width="392" height="24" rx="12" fill="#BEE1D9"/>
  <circle cx="732" cy="386" r="15" fill="#1E5F5B" stroke="#FFFFFF" stroke-width="4"/>
  <text x="600" y="413" text-anchor="middle" font-family="Inter, Arial, sans-serif" font-size="14" font-weight="700" fill="#667780">TESTED END-TO-END</text>
</svg>
