<svg width="1200" height="760" viewBox="0 0 1200 760" fill="none" xmlns="http://www.w3.org/2000/svg">
  <rect width="1200" height="760" rx="44" fill="#F8FAFC"/>
  <rect x="80" y="90" width="300" height="130" rx="24" fill="#DDF3E6"/>
  <rect x="450" y="90" width="300" height="130" rx="24" fill="#D6EDF8"/>
  <rect x="820" y="90" width="300" height="130" rx="24" fill="#E6F5F2"/>

  <rect x="80" y="320" width="300" height="130" rx="24" fill="#EAF0FA"/>
  <rect x="450" y="320" width="300" height="130" rx="24" fill="#E2F4EF"/>
  <rect x="820" y="320" width="300" height="130" rx="24" fill="#DBEFF9"/>

  <rect x="450" y="540" width="300" height="130" rx="24" fill="#D8EEE9"/>

  <path d="M380 155H450" stroke="#3E7D79" stroke-width="8" stroke-linecap="round"/>
  <path d="M750 155H820" stroke="#3E7D79" stroke-width="8" stroke-linecap="round"/>
  <path d="M230 220V320" stroke="#3E7D79" stroke-width="8" stroke-linecap="round"/>
  <path d="M600 220V320" stroke="#3E7D79" stroke-width="8" stroke-linecap="round"/>
  <path d="M970 220V320" stroke="#3E7D79" stroke-width="8" stroke-linecap="round"/>
  <path d="M600 450V540" stroke="#3E7D79" stroke-width="8" stroke-linecap="round"/>

  <text x="130" y="168" fill="#255A57" font-family="Arial" font-size="28" font-weight="700">Intake</text>
  <text x="500" y="168" fill="#255A57" font-family="Arial" font-size="28" font-weight="700">Qualification</text>
  <text x="870" y="168" fill="#255A57" font-family="Arial" font-size="28" font-weight="700">Proposal</text>

  <text x="130" y="398" fill="#255A57" font-family="Arial" font-size="28" font-weight="700">Delivery</text>
  <text x="500" y="398" fill="#255A57" font-family="Arial" font-size="28" font-weight="700">Review</text>
  <text x="870" y="398" fill="#255A57" font-family="Arial" font-size="28" font-weight="700">Handoff</text>

  <text x="510" y="618" fill="#255A57" font-family="Arial" font-size="28" font-weight="700">Documentation</text>
</svg>
