<svg xmlns="http://www.w3.org/2000/svg" xmlns:xlink="http://www.w3.org/1999/xlink" width="500" zoomAndPan="magnify" viewBox="0 0 375 374.999991" height="500" preserveAspectRatio="xMidYMid meet" version="1.0"><defs><clipPath id="306a0ba234"><path d="M 31.152344 31.09375 L 343.902344 31.09375 L 343.902344 343.84375 L 31.152344 343.84375 Z M 31.152344 31.09375 " clip-rule="nonzero"/></clipPath></defs><g clip-path="url(#306a0ba234)"><path fill="#f4f8ef" d="M 343.902344 187.496094 C 343.902344 230.597656 326.269531 269.78125 298.1875 298.1875 C 269.78125 326.597656 230.597656 343.902344 187.496094 343.902344 C 144.398438 343.902344 105.214844 326.597656 76.804688 298.1875 C 48.398438 269.78125 31.09375 230.597656 31.09375 187.496094 C 31.09375 144.398438 48.398438 105.214844 76.804688 76.804688 C 105.214844 48.726562 144.398438 31.09375 187.496094 31.09375 C 230.597656 31.09375 269.78125 48.726562 298.1875 76.804688 C 326.269531 105.214844 343.902344 144.398438 343.902344 187.496094 Z M 289.371094 289.371094 C 315.496094 263.25 331.492188 227.332031 331.492188 187.496094 C 331.492188 147.660156 315.496094 111.746094 289.371094 85.621094 C 263.25 59.5 227.332031 43.5 187.496094 43.5 C 147.660156 43.5 111.746094 59.5 85.621094 85.621094 C 59.5 111.746094 43.5 147.660156 43.5 187.496094 C 43.5 227.332031 59.5 263.25 85.621094 289.371094 C 111.746094 315.496094 147.660156 331.492188 187.496094 331.492188 C 227.332031 331.492188 263.25 315.496094 289.371094 289.371094 Z M 289.371094 289.371094 " fill-opacity="1" fill-rule="nonzero"/></g><path fill="#f4f8ef" d="M 319.085938 113.050781 C 307.003906 123.5 296.882812 134.601562 290.027344 147.007812 C 283.167969 159.089844 279.25 172.476562 279.25 187.496094 C 279.25 202.515625 283.167969 215.90625 290.027344 227.984375 C 296.882812 240.394531 307.003906 251.824219 319.085938 262.269531 L 310.921875 271.414062 C 297.863281 259.984375 286.761719 247.902344 279.25 234.191406 C 271.414062 220.148438 266.84375 204.804688 266.84375 187.496094 C 266.84375 170.191406 271.414062 154.84375 279.25 140.804688 C 286.761719 127.089844 297.863281 115.007812 310.921875 103.582031 Z M 319.085938 113.050781 " fill-opacity="1" fill-rule="nonzero"/><path fill="#f4f8ef" d="M 291.984375 82.03125 C 268.476562 96.070312 247.25 111.417969 231.90625 128.722656 C 217.210938 145.703125 208.070312 164.640625 208.070312 187.496094 C 208.070312 210.355469 217.210938 229.617188 231.90625 246.273438 C 247.25 263.902344 268.476562 278.921875 291.984375 292.964844 L 285.78125 303.738281 C 260.964844 289.046875 238.761719 273.046875 222.761719 254.433594 C 206.109375 235.496094 195.988281 213.621094 195.988281 187.496094 C 195.988281 161.375 206.109375 139.5 222.761719 120.558594 C 238.761719 101.949219 260.964844 86.277344 285.78125 71.582031 Z M 291.984375 82.03125 " fill-opacity="1" fill-rule="nonzero"/><path fill="#f4f8ef" d="M 260.636719 60.152344 C 228.3125 77.132812 196.964844 94.765625 174.109375 115.664062 C 151.578125 135.582031 137.214844 158.761719 137.214844 187.496094 C 137.214844 216.230469 151.578125 239.414062 174.109375 259.660156 C 196.964844 280.230469 228.3125 297.863281 260.636719 314.839844 L 254.761719 325.941406 C 221.78125 308.3125 189.78125 290.351562 165.621094 268.800781 C 140.804688 246.273438 124.804688 220.476562 124.804688 187.496094 C 124.804688 154.519531 140.804688 128.722656 165.621094 106.519531 C 189.78125 84.644531 221.78125 66.683594 254.761719 49.050781 Z M 260.636719 60.152344 " fill-opacity="1" fill-rule="nonzero"/><path fill="#f4f8ef" d="M 217.539062 45.132812 C 210.355469 49.050781 206.4375 51.011719 202.84375 52.96875 C 134.601562 89.214844 66.03125 125.132812 66.03125 187.496094 C 66.03125 249.863281 134.601562 286.105469 202.84375 322.023438 C 206.4375 323.984375 210.355469 325.941406 217.539062 329.859375 L 211.660156 340.636719 C 209.375 339.332031 203.171875 336.066406 196.964844 333.125 C 125.457031 295.25 53.949219 257.375 53.949219 187.496094 C 53.949219 117.949219 125.457031 80.070312 196.964844 42.195312 C 203.171875 38.929688 209.375 35.664062 211.660156 34.359375 Z M 217.539062 45.132812 " fill-opacity="1" fill-rule="nonzero"/></svg>