<svg xmlns="http://www.w3.org/2000/svg" xmlns:xlink="http://www.w3.org/1999/xlink" width="876" zoomAndPan="magnify" viewBox="0 0 657 141.000003" height="188" preserveAspectRatio="xMidYMid meet" version="1.0"><defs><g/><clipPath id="dff498c649"><path d="M 5.34375 14.335938 L 117.796875 14.335938 L 117.796875 126.789062 L 5.34375 126.789062 Z M 5.34375 14.335938 " clip-rule="nonzero"/></clipPath><clipPath id="ff6bef438d"><path d="M 145 0 L 654.6875 0 L 654.6875 140.007812 L 145 140.007812 Z M 145 0 " clip-rule="nonzero"/></clipPath><clipPath id="6ab8a4bf98"><rect x="0" width="510" y="0" height="141"/></clipPath></defs><g clip-path="url(#dff498c649)"><path fill="#3d6500" d="M 117.796875 70.652344 C 117.796875 86.175781 111.449219 100.285156 101.335938 110.511719 C 91.109375 120.742188 77 126.972656 61.476562 126.972656 C 45.957031 126.972656 31.847656 120.742188 21.621094 110.511719 C 11.390625 100.285156 5.160156 86.175781 5.160156 70.652344 C 5.160156 55.132812 11.390625 41.023438 21.621094 30.796875 C 31.847656 20.683594 45.957031 14.335938 61.476562 14.335938 C 77 14.335938 91.109375 20.683594 101.335938 30.796875 C 111.449219 41.023438 117.796875 55.132812 117.796875 70.652344 Z M 98.164062 107.339844 C 107.570312 97.933594 113.328125 85 113.328125 70.652344 C 113.328125 56.308594 107.570312 43.375 98.164062 33.96875 C 88.757812 24.5625 75.824219 18.800781 61.476562 18.800781 C 47.132812 18.800781 34.199219 24.5625 24.792969 33.96875 C 15.386719 43.375 9.625 56.308594 9.625 70.652344 C 9.625 85 15.386719 97.933594 24.792969 107.339844 C 34.199219 116.746094 47.132812 122.503906 61.476562 122.503906 C 75.824219 122.503906 88.757812 116.746094 98.164062 107.339844 Z M 98.164062 107.339844 " fill-opacity="1" fill-rule="nonzero"/></g><path fill="#3d6500" d="M 108.863281 43.847656 C 104.511719 47.609375 100.867188 51.605469 98.398438 56.074219 C 95.929688 60.425781 94.515625 65.246094 94.515625 70.652344 C 94.515625 76.0625 95.929688 80.882812 98.398438 85.234375 C 100.867188 89.703125 104.511719 93.816406 108.863281 97.578125 L 105.921875 100.871094 C 101.21875 96.757812 97.222656 92.40625 94.515625 87.46875 C 91.695312 82.410156 90.050781 76.886719 90.050781 70.652344 C 90.050781 64.421875 91.695312 58.894531 94.515625 53.839844 C 97.222656 48.902344 101.21875 44.550781 105.921875 40.4375 Z M 108.863281 43.847656 " fill-opacity="1" fill-rule="nonzero"/><path fill="#3d6500" d="M 99.101562 32.675781 C 90.636719 37.734375 82.996094 43.257812 77.46875 49.488281 C 72.179688 55.605469 68.886719 62.421875 68.886719 70.652344 C 68.886719 78.882812 72.179688 85.820312 77.46875 91.816406 C 82.996094 98.167969 90.636719 103.574219 99.101562 108.632812 L 96.867188 112.511719 C 87.933594 107.21875 79.9375 101.460938 74.175781 94.757812 C 68.179688 87.9375 64.535156 80.058594 64.535156 70.652344 C 64.535156 61.246094 68.179688 53.371094 74.175781 46.550781 C 79.9375 39.847656 87.933594 34.207031 96.867188 28.914062 Z M 99.101562 32.675781 " fill-opacity="1" fill-rule="nonzero"/><path fill="#3d6500" d="M 87.816406 24.800781 C 76.175781 30.914062 64.886719 37.261719 56.65625 44.789062 C 48.542969 51.960938 43.371094 60.308594 43.371094 70.652344 C 43.371094 81 48.542969 89.347656 56.65625 96.636719 C 64.886719 104.046875 76.175781 110.394531 87.816406 116.507812 L 85.699219 120.507812 C 73.824219 114.15625 62.300781 107.691406 53.601562 99.929688 C 44.664062 91.816406 38.902344 82.527344 38.902344 70.652344 C 38.902344 58.777344 44.664062 49.488281 53.601562 41.496094 C 62.300781 33.617188 73.824219 27.152344 85.699219 20.800781 Z M 87.816406 24.800781 " fill-opacity="1" fill-rule="nonzero"/><path fill="#3d6500" d="M 72.296875 19.390625 C 69.707031 20.800781 68.296875 21.507812 67.003906 22.210938 C 42.429688 35.261719 17.738281 48.195312 17.738281 70.652344 C 17.738281 93.109375 42.429688 106.164062 67.003906 119.09375 C 68.296875 119.800781 69.707031 120.507812 72.296875 121.917969 L 70.179688 125.796875 C 69.355469 125.328125 67.121094 124.152344 64.886719 123.09375 C 39.136719 109.453125 13.390625 95.816406 13.390625 70.652344 C 13.390625 45.609375 39.136719 31.972656 64.886719 18.332031 C 67.121094 17.15625 69.355469 15.980469 70.179688 15.511719 Z M 72.296875 19.390625 " fill-opacity="1" fill-rule="nonzero"/><g clip-path="url(#ff6bef438d)"><g transform="matrix(1, 0, 0, 1, 145, 0.000000000000002913)"><g clip-path="url(#6ab8a4bf98)"><g fill="#09110a" fill-opacity="1"><g transform="translate(0.772269, 111.647846)"><g><path d="M 42.765625 1.515625 C 35.679688 1.515625 29.382812 -0.226562 23.875 -3.71875 C 18.375 -7.207031 14.03125 -12.007812 10.84375 -18.125 C 7.65625 -24.238281 6.0625 -31.1875 6.0625 -38.96875 C 6.0625 -46.75 7.65625 -53.625 10.84375 -59.59375 C 14.03125 -65.5625 18.375 -70.265625 23.875 -73.703125 C 29.382812 -77.140625 35.628906 -78.859375 42.609375 -78.859375 C 48.367188 -78.859375 53.546875 -77.742188 58.140625 -75.515625 C 62.742188 -73.296875 66.535156 -70.132812 69.515625 -66.03125 C 72.503906 -61.9375 74.40625 -57.160156 75.21875 -51.703125 L 64 -51.703125 C 62.976562 -56.660156 60.648438 -60.707031 57.015625 -63.84375 C 53.378906 -66.976562 48.679688 -68.546875 42.921875 -68.546875 C 37.960938 -68.546875 33.660156 -67.332031 30.015625 -64.90625 C 26.378906 -62.476562 23.550781 -59.039062 21.53125 -54.59375 C 19.507812 -50.144531 18.5 -44.9375 18.5 -38.96875 C 18.5 -33.007812 19.507812 -27.753906 21.53125 -23.203125 C 23.550781 -18.648438 26.40625 -15.109375 30.09375 -12.578125 C 33.789062 -10.054688 38.113281 -8.796875 43.0625 -8.796875 C 48.625 -8.796875 53.273438 -10.335938 57.015625 -13.421875 C 60.753906 -16.503906 63.128906 -20.519531 64.140625 -25.46875 L 75.359375 -25.46875 C 74.453125 -20.113281 72.457031 -15.390625 69.375 -11.296875 C 66.289062 -7.203125 62.472656 -4.039062 57.921875 -1.8125 C 53.378906 0.40625 48.328125 1.515625 42.765625 1.515625 Z M 42.765625 1.515625 "/></g></g></g><g fill="#09110a" fill-opacity="1"><g transform="translate(81.592308, 111.647846)"><g><path d="M 44.28125 1.515625 C 36.695312 1.515625 30.023438 -0.25 24.265625 -3.78125 C 18.503906 -7.320312 14.03125 -12.148438 10.84375 -18.265625 C 7.65625 -24.390625 6.0625 -31.289062 6.0625 -38.96875 C 6.0625 -46.75 7.675781 -53.625 10.90625 -59.59375 C 14.144531 -65.5625 18.617188 -70.265625 24.328125 -73.703125 C 30.046875 -77.140625 36.695312 -78.859375 44.28125 -78.859375 C 51.957031 -78.859375 58.648438 -77.140625 64.359375 -73.703125 C 70.078125 -70.265625 74.53125 -65.5625 77.71875 -59.59375 C 80.90625 -53.625 82.5 -46.75 82.5 -38.96875 C 82.5 -31.289062 80.90625 -24.390625 77.71875 -18.265625 C 74.53125 -12.148438 70.078125 -7.320312 64.359375 -3.78125 C 58.648438 -0.25 51.957031 1.515625 44.28125 1.515625 Z M 44.28125 -8.796875 C 49.539062 -8.796875 54.085938 -10.082031 57.921875 -12.65625 C 61.765625 -15.238281 64.75 -18.800781 66.875 -23.34375 C 69 -27.894531 70.0625 -33.15625 70.0625 -39.125 C 70.0625 -48.019531 67.707031 -55.144531 63 -60.5 C 58.300781 -65.863281 52.0625 -68.546875 44.28125 -68.546875 C 36.59375 -68.546875 30.375 -65.863281 25.625 -60.5 C 20.875 -55.144531 18.5 -48.019531 18.5 -39.125 C 18.5 -33.15625 19.5625 -27.894531 21.6875 -23.34375 C 23.8125 -18.800781 26.816406 -15.238281 30.703125 -12.65625 C 34.597656 -10.082031 39.125 -8.796875 44.28125 -8.796875 Z M 44.28125 -8.796875 "/></g></g></g><g fill="#09110a" fill-opacity="1"><g transform="translate(170.145596, 111.647846)"><g><path d="M 12.125 0 L 12.125 -109.1875 L 24.265625 -109.1875 L 24.265625 0 Z M 67.484375 0 L 67.484375 -50.640625 C 67.484375 -56.503906 66.015625 -60.898438 63.078125 -63.828125 C 60.148438 -66.765625 55.804688 -68.234375 50.046875 -68.234375 C 44.984375 -68.234375 40.503906 -67.117188 36.609375 -64.890625 C 32.722656 -62.671875 29.691406 -59.585938 27.515625 -55.640625 C 25.347656 -51.703125 24.265625 -47.109375 24.265625 -41.859375 L 22.296875 -60.203125 C 24.921875 -65.960938 28.9375 -70.507812 34.34375 -73.84375 C 39.75 -77.1875 45.890625 -78.859375 52.765625 -78.859375 C 60.859375 -78.859375 67.351562 -76.554688 72.25 -71.953125 C 77.15625 -67.347656 79.609375 -61.304688 79.609375 -53.828125 L 79.609375 0 Z M 67.484375 0 "/></g></g></g><g fill="#09110a" fill-opacity="1"><g transform="translate(260.973377, 111.647846)"><g><path d="M 43.828125 1.515625 C 36.441406 1.515625 29.914062 -0.226562 24.25 -3.71875 C 18.59375 -7.207031 14.144531 -11.984375 10.90625 -18.046875 C 7.675781 -24.109375 6.0625 -31.082031 6.0625 -38.96875 C 6.0625 -46.851562 7.65625 -53.800781 10.84375 -59.8125 C 14.03125 -65.832031 18.503906 -70.507812 24.265625 -73.84375 C 30.023438 -77.1875 36.644531 -78.859375 44.125 -78.859375 C 51.300781 -78.859375 57.539062 -77.289062 62.84375 -74.15625 C 68.15625 -71.019531 72.25 -66.617188 75.125 -60.953125 C 78.007812 -55.296875 79.453125 -48.625 79.453125 -40.9375 C 79.453125 -39.925781 79.425781 -38.96875 79.375 -38.0625 C 79.332031 -37.15625 79.207031 -36.144531 79 -35.03125 L 15.171875 -35.03125 L 15.171875 -45.1875 L 71.578125 -45.1875 L 67.625 -39.578125 C 67.625 -48.878906 65.578125 -56.03125 61.484375 -61.03125 C 57.390625 -66.039062 51.601562 -68.546875 44.125 -68.546875 C 36.445312 -68.546875 30.253906 -65.890625 25.546875 -60.578125 C 20.847656 -55.273438 18.5 -48.125 18.5 -39.125 C 18.5 -29.925781 20.847656 -22.570312 25.546875 -17.0625 C 30.253906 -11.550781 36.550781 -8.796875 44.4375 -8.796875 C 49.382812 -8.796875 53.726562 -9.878906 57.46875 -12.046875 C 61.207031 -14.222656 63.9375 -17.332031 65.65625 -21.375 L 77.1875 -21.375 C 74.65625 -14.300781 70.429688 -8.71875 64.515625 -4.625 C 58.609375 -0.53125 51.710938 1.515625 43.828125 1.515625 Z M 43.828125 1.515625 "/></g></g></g><g fill="#09110a" fill-opacity="1"><g transform="translate(346.494014, 111.647846)"><g><path d="M 34.71875 0 L 2.734375 -77.34375 L 15.765625 -77.34375 L 42.453125 -8.1875 L 37.609375 -8.1875 L 64.140625 -77.34375 L 76.578125 -77.34375 L 44.578125 0 Z M 34.71875 0 "/></g></g></g><g fill="#09110a" fill-opacity="1"><g transform="translate(425.797737, 111.647846)"><g><path d="M 44.28125 1.515625 C 36.695312 1.515625 30.023438 -0.25 24.265625 -3.78125 C 18.503906 -7.320312 14.03125 -12.148438 10.84375 -18.265625 C 7.65625 -24.390625 6.0625 -31.289062 6.0625 -38.96875 C 6.0625 -46.75 7.675781 -53.625 10.90625 -59.59375 C 14.144531 -65.5625 18.617188 -70.265625 24.328125 -73.703125 C 30.046875 -77.140625 36.695312 -78.859375 44.28125 -78.859375 C 51.957031 -78.859375 58.648438 -77.140625 64.359375 -73.703125 C 70.078125 -70.265625 74.53125 -65.5625 77.71875 -59.59375 C 80.90625 -53.625 82.5 -46.75 82.5 -38.96875 C 82.5 -31.289062 80.90625 -24.390625 77.71875 -18.265625 C 74.53125 -12.148438 70.078125 -7.320312 64.359375 -3.78125 C 58.648438 -0.25 51.957031 1.515625 44.28125 1.515625 Z M 44.28125 -8.796875 C 49.539062 -8.796875 54.085938 -10.082031 57.921875 -12.65625 C 61.765625 -15.238281 64.75 -18.800781 66.875 -23.34375 C 69 -27.894531 70.0625 -33.15625 70.0625 -39.125 C 70.0625 -48.019531 67.707031 -55.144531 63 -60.5 C 58.300781 -65.863281 52.0625 -68.546875 44.28125 -68.546875 C 36.59375 -68.546875 30.375 -65.863281 25.625 -60.5 C 20.875 -55.144531 18.5 -48.019531 18.5 -39.125 C 18.5 -33.15625 19.5625 -27.894531 21.6875 -23.34375 C 23.8125 -18.800781 26.816406 -15.238281 30.703125 -12.65625 C 34.597656 -10.082031 39.125 -8.796875 44.28125 -8.796875 Z M 44.28125 -8.796875 "/></g></g></g></g></g></g></svg>